<svg width="1284" height="2778" viewBox="0 0 1284 2778" fill="none" xmlns="http://www.w3.org/2000/svg">
<rect width="1284" height="2778" fill="black"/>
<rect x="295" y="1045" width="627" height="648" fill="white"/>
<path d="M333.39 865.769C294.857 879.367 264.18 909.447 246.597 950.24L236.871 973.315V1321.5V1669.69L246.971 1693.17C260.813 1725.72 283.634 1751.68 313.188 1767.75L337.88 1780.94H654H970.121L991.445 1769.81C1021 1754.57 1044.57 1729.43 1059.16 1696.88L1071.13 1669.69V1321.5V973.315L1059.16 946.119C1044.57 913.567 1021 888.432 991.445 873.186L970.121 862.06L659.612 861.236C410.082 860.412 346.11 861.648 333.39 865.769ZM441.133 1180.17L441.507 1269.99L450.86 1218.49C455.723 1190.06 462.831 1150.09 466.198 1129.9L472.558 1092.81L490.515 1091.57C500.242 1090.75 508.098 1091.99 508.098 1093.63C508.098 1095.28 499.868 1145.14 489.767 1204.06C479.666 1262.99 471.81 1311.61 472.184 1312.02C472.558 1312.85 493.134 1262.99 517.825 1202L562.344 1090.75H593.395C621.453 1090.75 624.446 1091.57 622.575 1098.17C621.453 1101.88 601.999 1149.67 579.179 1203.65C556.358 1258.04 538.401 1302.55 538.775 1302.96C539.523 1303.78 575.063 1255.98 617.712 1197.47L695.9 1090.75H740.793C775.585 1090.75 784.938 1091.99 782.693 1095.69C781.197 1098.58 745.282 1149.26 703.382 1207.77C637.165 1299.66 627.438 1315.32 630.805 1321.91C633.424 1326.03 668.216 1374.24 708.62 1429.46C749.023 1484.67 783.815 1532.06 786.06 1534.53C788.679 1538.65 779.326 1539.89 741.541 1539.89H693.281L616.963 1443.06C575.063 1389.9 540.272 1346.22 539.523 1346.22C537.653 1346.22 547.38 1370.53 584.416 1455.01C604.244 1499.92 620.33 1537.42 620.33 1538.24C620.33 1539.06 604.618 1539.89 585.913 1539.89H551.121L513.71 1441C493.134 1386.6 475.925 1343.75 475.177 1345.81C474.055 1349.11 499.12 1494.97 506.976 1530.41C508.847 1539.48 507.724 1539.89 490.515 1539.89H472.184L456.846 1456.24L441.507 1373.01L441.133 1456.24L440.759 1539.89H429.536H418.313V1318.2C418.313 1196.24 419.435 1094.87 420.931 1093.63C422.054 1091.99 427.291 1090.75 432.155 1090.75H440.759L441.133 1180.17ZM869.86 1451.3C882.205 1460.36 890.81 1484.26 887.817 1501.16C885.198 1517.64 867.615 1538.24 853.773 1541.12C823.471 1547.31 791.672 1513.93 798.78 1483.03C807.01 1446.35 841.428 1431.11 869.86 1451.3Z" fill="black"/>
</svg>
